<svg xmlns="http://www.w3.org/2000/svg" xmlns:xlink="http://www.w3.org/1999/xlink" width="20" height="18" viewBox="0 0 20 18">
  <defs>
    <clipPath id="clip-path">
      <rect id="Rectangle_7" data-name="Rectangle 7" width="20" height="18" transform="translate(0 0)" fill="none"/>
    </clipPath>
  </defs>
  <g id="Vector_Smart_Object" data-name="Vector Smart Object" transform="translate(0 0)">
    <g id="Group_35" data-name="Group 35">
      <g id="Group_34" data-name="Group 34" clip-path="url(#clip-path)">
        <path id="Path_40" data-name="Path 40" d="M1.79,6.053H.034V4.462c.613,0,1.221-.031,1.824.01.413.029.574-.135.691-.517.267-.875.6-1.731.873-2.605a.723.723,0,0,1,.56-.532A22.42,22.42,0,0,1,11.4.039,19.146,19.146,0,0,1,16.06.833a.678.678,0,0,1,.5.492c.306.938.643,1.865.952,2.8a.416.416,0,0,0,.477.34c.65-.02,1.3-.006,1.98-.006V6.035H18.241c.081.163.127.273.189.373.286.468.581.93.864,1.4a4.661,4.661,0,0,1,.693,2.412c.014,1.8.018,3.594,0,5.39a2.376,2.376,0,0,1-2.123,2.376,2.345,2.345,0,0,1-2.486-1.809,7.68,7.68,0,0,1-.107-.947H4.724A8.565,8.565,0,0,1,4.6,16.2a2.334,2.334,0,0,1-2.5,1.78A2.357,2.357,0,0,1,.01,15.666q-.023-2.78,0-5.561a4.613,4.613,0,0,1,.766-2.43L1.79,6.053m4.5,7.53V9.663h7.426v3.906h4.709V12.05C18.416,9.061,18.6,9.674,17,7.078c-.008-.012-.012-.028-.024-.034-.152-.09-.3-.255-.458-.256q-6.514-.021-13.03,0a.652.652,0,0,0-.45.263c-.328.472-.615.974-.926,1.459a3.36,3.36,0,0,0-.541,1.883c.009.948,0,1.9,0,2.844,0,.109.016.218.027.346Zm9.925-8.42c-.3-.863-.6-1.666-.848-2.485a.723.723,0,0,0-.617-.564,21.841,21.841,0,0,0-9.536.015.692.692,0,0,0-.585.545c-.211.7-.467,1.389-.7,2.083-.043.125-.076.253-.12.405Zm-4.094,6.086H7.877v2.335h4.243Zm4.756,3.974c-.038.464,0,.85.405,1.073a.713.713,0,0,0,.855-.084.916.916,0,0,0,.249-.99Zm-13.789,0H1.6c-.075.412-.075.82.31,1.013a1.071,1.071,0,0,0,.805.033c.422-.176.436-.6.367-1.046" fill="#333"/>
        <path id="Path_41" data-name="Path 41" d="M3.908,11.211a4.254,4.254,0,0,1-.5,0,.754.754,0,0,1-.666-.744.726.726,0,0,1,.6-.794,4.9,4.9,0,0,1,1.036-.017.773.773,0,0,1,.7.807.785.785,0,0,1-.754.757c-.138.01-.278,0-.416,0v-.006" fill="#333"/>
        <path id="Path_42" data-name="Path 42" d="M16.083,11.211a4.106,4.106,0,0,1-.5,0,.769.769,0,0,1-.666-.748.74.74,0,0,1,.61-.791,4.9,4.9,0,0,1,1.037-.015.753.753,0,0,1,.688.811.775.775,0,0,1-.753.753c-.138.009-.278,0-.416,0v-.007" fill="#333"/>
      </g>
    </g>
  </g>
</svg>
