<svg xmlns="http://www.w3.org/2000/svg" xmlns:xlink="http://www.w3.org/1999/xlink" width="21" height="24" viewBox="0 0 21 24">
  <defs>
    <clipPath id="clip-path">
      <rect id="Rectangle_5" data-name="Rectangle 5" width="21" height="24" transform="translate(0 0)" fill="none"/>
    </clipPath>
  </defs>
  <g id="Vector_Smart_Object" data-name="Vector Smart Object" transform="translate(0 0)">
    <g id="Group_31" data-name="Group 31">
      <g id="Group_30" data-name="Group 30" clip-path="url(#clip-path)">
        <path id="Path_38" data-name="Path 38" d="M5.083,8.3c0-1.046-.017-2.027,0-3.006a5.42,5.42,0,0,1,10.838,0c.021.979,0,1.96,0,3.007.48,0,.928.015,1.374,0a.8.8,0,0,1,.864.563c.823,2.084,1.678,4.156,2.472,6.25a5.8,5.8,0,0,1-1.694,6.4,8.48,8.48,0,0,1-6.754,2.453c-1.642-.142-3.307-.028-4.961-.026a5.757,5.757,0,0,1-3.681-1.277c-.489-.387-.982-.77-1.462-1.168A5.625,5.625,0,0,1,.373,15.114c.8-2.094,1.649-4.166,2.472-6.25A.8.8,0,0,1,3.709,8.3c.434.019.868,0,1.375,0M2.007,14.9a4.279,4.279,0,0,0,.822,5.375c.581.517,1.2.994,1.825,1.457a4.057,4.057,0,0,0,2.446.8q3.392.011,6.783,0a4.019,4.019,0,0,0,2.412-.762,23.219,23.219,0,0,0,1.934-1.546,4.229,4.229,0,0,0,.785-5.29c-1.3.43-2.575.887-3.871,1.262-.484.139-.906.238-1.058.786a.878.878,0,0,1-.244.337c-.933.94-1.865,1.881-2.809,2.809A.663.663,0,0,1,10,20.146a21.579,21.579,0,0,1-2.8-2.874,3.213,3.213,0,0,0-2.035-1.253c-1.068-.313-2.1-.741-3.159-1.121M14.5,9.747H6.522v1.5c.582.146.828.4.792.792-.038.42-.356.647-.923.653-.406,0-.811,0-1.217,0-.539-.006-.846-.222-.9-.624s.182-.655.728-.8c.025-.006.041-.043.044-.045V9.71a6.929,6.929,0,0,0-.737.008c-.12.013-.3.077-.335.165-.492,1.191-.963,2.389-1.486,3.7L6.611,15.04C7.688,13.288,8.868,13,10.512,14c1.586-1.011,2.708-.739,3.9,1.034l4.11-1.456c-.522-1.31-.99-2.494-1.473-3.672a.383.383,0,0,0-.269-.191c-.272-.026-.548-.009-.825-.009v1.531c.578.152.819.4.785.793-.038.42-.356.65-.921.656q-.609.006-1.217,0c-.541-.006-.849-.221-.905-.622s.2-.665.726-.806c.027-.007.047-.037.076-.062Zm.014-1.47c0-1.066.042-2.079-.008-3.088a4.009,4.009,0,0,0-3.625-3.772A3.9,3.9,0,0,0,6.643,4.451a28.081,28.081,0,0,0-.209,3.826Zm-4,10.377c.777-.772,1.527-1.5,2.253-2.246a.9.9,0,0,0,0-1.3.952.952,0,0,0-1.31-.012c-.118.1-.221.22-.333.328a.746.746,0,0,1-1.212.014c-.135-.129-.26-.271-.4-.388a.941.941,0,0,0-1.238.044A.888.888,0,0,0,8.2,16.356c.742.773,1.518,1.515,2.31,2.3" fill="#333"/>
      </g>
    </g>
  </g>
</svg>
