<svg xmlns="http://www.w3.org/2000/svg" xmlns:xlink="http://www.w3.org/1999/xlink" width="19" height="22" viewBox="0 0 19 22">
  <defs>
    <clipPath id="clip-path">
      <rect id="Rectangle_23" data-name="Rectangle 23" width="19" height="22" transform="translate(0 0)" fill="none"/>
    </clipPath>
  </defs>
  <g id="Vector_Smart_Object" data-name="Vector Smart Object" transform="translate(0 0)">
    <line id="Line_13" data-name="Line 13" x1="13.606" y1="3.913" transform="translate(2.733 3.797)" fill="#333"/>
    <line id="Line_14" data-name="Line 14" x1="13.606" y1="3.913" transform="translate(2.733 3.797)" fill="none" stroke="#333" stroke-miterlimit="10" stroke-width="1.038"/>
    <rect id="Rectangle_22" data-name="Rectangle 22" width="0.771" height="3.42" transform="translate(9.377 2.028)" fill="#333"/>
    <path id="Path_151" data-name="Path 151" d="M4.189,5.632l-.267.952-.267.947L1.728,14.353H.661L3.119,5.637l.267-.947.249-.882,0-.01.015.005.021.005.249.879Z" fill="#333"/>
    <path id="Path_152" data-name="Path 152" d="M6.65,14.353H5.58L3.654,7.531l-.267-.947-.267-.947.267-.947.249-.882L3.654,3.8,3.672,3.8l0,.01.249.879.265.945Z" fill="#333"/>
    <g id="Group_65" data-name="Group 65">
      <g id="Group_64" data-name="Group 64" clip-path="url(#clip-path)">
        <path id="Path_153" data-name="Path 153" d="M0,14.353v.523A3.693,3.693,0,0,0,3.654,18.6a3.694,3.694,0,0,0,3.657-3.721v-.523Zm3.654,3.2A2.641,2.641,0,0,1,1.08,15.4H6.231a2.644,2.644,0,0,1-2.577,2.151" fill="#333"/>
        <path id="Path_154" data-name="Path 154" d="M15.878,9.034l-.267.952-.267.947-1.926,6.822H12.35l2.458-8.716.267-.947.249-.882,0-.01.015.005.021.005.249.879Z" fill="#333"/>
        <path id="Path_155" data-name="Path 155" d="M18.339,17.756h-1.07l-1.926-6.822-.267-.947-.267-.947.267-.947.249-.882.018-.005.018-.005,0,.01.249.879.265.945Z" fill="#333"/>
        <path id="Path_156" data-name="Path 156" d="M11.689,17.756v.523a3.656,3.656,0,1,0,7.311,0v-.523Zm3.654,3.2A2.641,2.641,0,0,1,12.769,18.8H17.92a2.644,2.644,0,0,1-2.577,2.151" fill="#333"/>
        <path id="Path_157" data-name="Path 157" d="M10.948,1.206a1.185,1.185,0,1,1-2.37,0,1.185,1.185,0,1,1,2.37,0" fill="#333"/>
      </g>
    </g>
  </g>
</svg>
