<svg id="Group_70" data-name="Group 70" xmlns="http://www.w3.org/2000/svg" xmlns:xlink="http://www.w3.org/1999/xlink" width="19" height="13" viewBox="0 0 19 13">
  <defs>
    <clipPath id="clip-path">
      <rect id="Rectangle_25" data-name="Rectangle 25" width="19" height="13" fill="none"/>
    </clipPath>
  </defs>
  <g id="Group_69" data-name="Group 69" clip-path="url(#clip-path)">
    <path id="Path_166" data-name="Path 166" d="M9.486,1.514H1.1A2.8,2.8,0,0,1,.695,1.5.76.76,0,0,1,0,.752.762.762,0,0,1,.7.013,2.679,2.679,0,0,1,1.074,0H17.917c.062,0,.124,0,.185,0,.54.014.889.3.9.743s-.349.767-.907.768q-4.3.006-8.607,0" fill="#333"/>
    <path id="Path_167" data-name="Path 167" d="M9.461,7.252H1.115c-.124,0-.248,0-.371-.006A.756.756,0,0,1,0,6.512a.772.772,0,0,1,.729-.755,3.177,3.177,0,0,1,.334-.006H17.94a3.1,3.1,0,0,1,.334.006A.771.771,0,0,1,19,6.514a.748.748,0,0,1-.747.729c-.32.018-.643.008-.964.008H9.461" fill="#333"/>
    <path id="Path_168" data-name="Path 168" d="M9.538,11.507h8.42c.111,0,.223-.005.334.005a.765.765,0,0,1,.708.733.757.757,0,0,1-.692.745A3.819,3.819,0,0,1,17.9,13H1.1c-.124,0-.248,0-.371-.006A.759.759,0,0,1,0,12.243a.766.766,0,0,1,.747-.734c.111-.007.222,0,.334,0H9.538" fill="#333"/>
  </g>
</svg>
