<svg xmlns="http://www.w3.org/2000/svg" width="22" height="18" viewBox="0 0 22 18">
  <g id="Vector_Smart_Object" data-name="Vector Smart Object" transform="translate(-114.881 -121.151)">
    <g id="Group_66" data-name="Group 66">
      <path id="Path_159" data-name="Path 159" d="M118.281,122.437c-.869,0-1.719,0-2.57,0-.526,0-.826-.234-.83-.625s.314-.654.811-.657c.983-.005,1.966.007,2.949,0a.735.735,0,0,1,.812.617c.132.521.31,1.031.433,1.554.073.312.22.4.54.4q5.85-.016,11.7-.008c1.311,0,2.622,0,3.932,0,.693,0,.952.348.762,1.007q-1.236,4.276-2.478,8.55c-.184.631-.318.726-.975.727h-11.11c-.626,0-.75-.1-.922-.715q-1.42-5.088-2.84-10.175C118.435,122.895,118.359,122.681,118.281,122.437Zm2.091,2.608c.7,2.5,1.382,4.929,2.047,7.363.076.277.224.3.459.3q4.936-.005,9.872,0a.443.443,0,0,0,.515-.372c.622-2.177,1.263-4.348,1.9-6.522.071-.242.127-.49.2-.777Z" fill="#333"/>
      <path id="Path_160" data-name="Path 160" d="M133.643,137.218a1.943,1.943,0,1,1-1.944-1.925A1.962,1.962,0,0,1,133.643,137.218Zm-1.954-.627a.605.605,0,0,0-.622.609.644.644,0,0,0,.635.665.659.659,0,0,0,.64-.667A.621.621,0,0,0,131.688,136.591Z" fill="#333"/>
      <path id="Path_161" data-name="Path 161" d="M122.034,137.247a1.911,1.911,0,0,1,1.9-1.953,1.929,1.929,0,1,1-1.9,1.953Zm1.856-.652a.584.584,0,0,0-.56.614.624.624,0,0,0,.64.652.635.635,0,1,0-.079-1.266Z" fill="#333"/>
      <path id="Path_162" data-name="Path 162" d="M127.856,127.592q2.135,0,4.268,0c.564,0,.863.225.859.638s-.312.645-.864.645q-4.317,0-8.635,0c-.506,0-.809-.251-.81-.65s.283-.63.816-.632q2.182,0,4.366,0Z" fill="#333"/>
      <path id="Path_163" data-name="Path 163" d="M127.825,131.434c-1.013,0-2.026,0-3.039,0-.519,0-.818-.235-.822-.63s.3-.651.8-.652q3.065-.005,6.128,0c.505,0,.8.258.8.658-.008.385-.289.617-.779.619-1.029.006-2.058,0-3.088,0Z" fill="#333"/>
    </g>
  </g>
</svg>
