<svg xmlns="http://www.w3.org/2000/svg" xmlns:xlink="http://www.w3.org/1999/xlink" width="20" height="20" viewBox="0 0 20 20">
  <defs>
    <clipPath id="clip-path">
      <rect id="Rectangle_2" data-name="Rectangle 2" width="20" height="20" transform="translate(0 0)" fill="none"/>
    </clipPath>
  </defs>
  <g id="Vector_Smart_Object" data-name="Vector Smart Object" transform="translate(0 0)">
    <g id="Group_25" data-name="Group 25">
      <g id="Group_24" data-name="Group 24" clip-path="url(#clip-path)">
        <path id="Path_33" data-name="Path 33" d="M9.4,16.5a10.005,10.005,0,0,1-7.433-4.058,9.814,9.814,0,0,1-1.96-6.4c.715-.139,1.431-.247,2.13-.425A15.74,15.74,0,0,0,4.291,4.94,4.194,4.194,0,0,0,7.055.954c.012-.311,0-.622,0-.954H12.92c.006.135.008.273.02.411a13.5,13.5,0,0,0,.154,1.553A3.944,3.944,0,0,0,15.182,4.7a11.77,11.77,0,0,0,3.49,1.072c.434.084.869.163,1.3.244a9.985,9.985,0,0,1-9.377,10.5v2.322h3.484V20H5.936V18.852H9.4ZM1.21,7.061A8.809,8.809,0,0,0,18.791,7.1L15.119,6.12a16.838,16.838,0,0,1-1.735,1.269,18.079,18.079,0,0,1-2.054.859c.053.071.132.168.2.271.335.48.692.947,1,1.444a2.759,2.759,0,0,1-1.212,3.879,2.936,2.936,0,0,1-3.443-.611,2.649,2.649,0,0,1-.355-3.341c.3-.5.671-.959,1.011-1.436.061-.086.12-.175.2-.287a6.716,6.716,0,0,1-3.037-1.4c-.289-.239-.529-.653-.843-.712S4.161,6.3,3.8,6.4c-.851.232-1.71.436-2.589.658M5.957,5.37a5.636,5.636,0,0,0,8.1.014A5.512,5.512,0,0,1,11.78,1.177H8.229A5.468,5.468,0,0,1,5.957,5.37M10.1,8.535l-.184.03c-.453.618-.913,1.231-1.357,1.856a1.633,1.633,0,0,0,1.11,2.521,1.681,1.681,0,0,0,1.677-.6,1.317,1.317,0,0,0,.276-1.556c-.457-.778-1.009-1.5-1.521-2.247" fill="#333"/>
        <rect id="Rectangle_1" data-name="Rectangle 1" width="1.107" height="1.138" transform="translate(9.453 10.639)" fill="#333"/>
      </g>
    </g>
  </g>
</svg>
