<svg xmlns="http://www.w3.org/2000/svg" xmlns:xlink="http://www.w3.org/1999/xlink" width="21" height="21" viewBox="0 0 21 21">
  <defs>
    <clipPath id="clip-path">
      <rect id="Rectangle_4" data-name="Rectangle 4" width="21" height="21" transform="translate(0 0)" fill="none"/>
    </clipPath>
  </defs>
  <g id="Vector_Smart_Object" data-name="Vector Smart Object" transform="translate(0 0)">
    <g id="Group_29" data-name="Group 29">
      <g id="Group_28" data-name="Group 28" clip-path="url(#clip-path)">
        <path id="Path_35" data-name="Path 35" d="M3.714,12.307c-1,0-1.946,0-2.887,0-.711,0-.916-.26-.793-.973q.6-3.45,1.178-6.9a.87.87,0,0,1,.664-.78Q3.343,3.2,4.79,2.679a1,1,0,0,0,.487-.427c.326-.583.615-1.188.905-1.79A.744.744,0,0,1,6.927,0Q10.5.011,14.071,0a.717.717,0,0,1,.717.438c.286.589.6,1.166.875,1.76a.876.876,0,0,0,.58.512c.977.306,1.942.651,2.919.96a.8.8,0,0,1,.6.695q.606,3.552,1.222,7.1c.092.534-.162.834-.717.837-.982.005-1.964,0-2.995,0v.52q0,3.628,0,7.256c0,.748-.171.917-.915.917H4.613c-.719,0-.9-.176-.9-.893q0-3.627,0-7.256v-.545M4.95,19.748H16.035v-8.7c0-.943,0-1.886,0-2.829,0-.546.226-.84.625-.835s.607.294.609.851c0,.793,0,1.586,0,2.378,0,.144.015.288.023.435h2.329c-.008-.12-.006-.216-.022-.309-.328-1.911-.652-3.822-1-5.729a.569.569,0,0,0-.34-.326c-.745-.268-1.507-.491-2.249-.766-.285-.105-.41-.022-.558.207-.6.916-1.209,1.821-1.817,2.729-.451.675-.761.709-1.325.145-.6-.6-1.194-1.194-1.824-1.826-.637.64-1.24,1.25-1.848,1.856-.526.524-.855.487-1.274-.14-.615-.92-1.237-1.836-1.839-2.764-.149-.23-.275-.311-.559-.206-.743.274-1.5.516-2.254.753a.454.454,0,0,0-.363.417c-.224,1.374-.472,2.744-.708,4.116-.1.61-.2,1.222-.3,1.84H3.714c0-.914,0-1.8,0-2.688,0-.672.186-.968.61-.973s.625.3.625.958q0,5.412,0,10.823v.58M9.539,4.34,6.93,1.742c-.157.309-.314.655-.5.982a.478.478,0,0,0,.028.59c.431.615.838,1.247,1.256,1.871.132.2.269.392.4.584L9.539,4.34M11.488,4.3,12.9,5.738c.562-.843,1.138-1.7,1.706-2.568a.312.312,0,0,0,.029-.258c-.189-.4-.4-.8-.585-1.174L11.488,4.3M8.447,1.257,10.5,3.3l2.047-2.047Z" fill="#333"/>
        <path id="Path_36" data-name="Path 36" d="M11.1,8a.61.61,0,1,1-.595-.608A.617.617,0,0,1,11.1,8" fill="#333"/>
        <path id="Path_37" data-name="Path 37" d="M11.1,10.449a.61.61,0,1,1-.6-.6.616.616,0,0,1,.6.6" fill="#333"/>
      </g>
    </g>
  </g>
</svg>
