<svg xmlns="http://www.w3.org/2000/svg" width="16" height="16.001" viewBox="0 0 16 16.001">
  <path id="Color_Overlay" data-name="Color Overlay" d="M129.734,4407.319h3.293a9.589,9.589,0,0,0,2.141,4.68A7.81,7.81,0,0,1,129.734,4407.319Zm10.482,2.459a25.548,25.548,0,0,0,.816-2.462h3.233a7.709,7.709,0,0,1-5.256,4.642A24.625,24.625,0,0,0,140.216,4409.778Zm-4.507,1.2a8.317,8.317,0,0,1-1.58-3.654h5.742a8.278,8.278,0,0,1-1.6,3.673,1.495,1.495,0,0,1-2.563-.019Zm-6.135-4.778c-.225,0-.313-.084-.364-.313a8.351,8.351,0,0,1,.023-3.823c.027-.112.176-.272.27-.274,1.078-.017,2.156-.011,3.234-.007.034,0,.07.021.059.02v4.394h-1c-.735,0-1.473-.01-2.208,0Zm11.627-.006v-4.42h1.134c.7,0,1.394.007,2.092,0,.189,0,.3.037.35.255a8.4,8.4,0,0,1-.021,3.935.34.34,0,0,1-.24.219c-.7.01-1.4.012-2.1.012Zm-7.245-.015a15.207,15.207,0,0,1,0-4.381h6.1a15.326,15.326,0,0,1,0,4.381Zm7.018-5.521a9.615,9.615,0,0,0-2.109-4.659c1.857.075,5,2.807,5.392,4.659Zm-6.847,0a7.743,7.743,0,0,1,1.779-3.869,1.39,1.39,0,0,1,2.188,0,7.871,7.871,0,0,1,1.784,3.872Zm-4.394-.009a7.712,7.712,0,0,1,5.255-4.633,24.283,24.283,0,0,0-1.207,2.176c-.337.773-.539,1.609-.813,2.457Z" transform="translate(-129 -4395.999)" fill="#333"/>
</svg>
