<svg xmlns="http://www.w3.org/2000/svg" xmlns:xlink="http://www.w3.org/1999/xlink" width="18" height="20" viewBox="0 0 18 20">
  <defs>
    <clipPath id="clip-path">
      <rect id="Rectangle_3" data-name="Rectangle 3" width="18" height="20" transform="translate(0 0)" fill="none"/>
    </clipPath>
  </defs>
  <g id="Group_27" data-name="Group 27" transform="translate(0 0)">
    <g id="Group_26" data-name="Group 26" clip-path="url(#clip-path)">
      <path id="Path_34" data-name="Path 34" d="M1.628,7.789C1.222,7.073.825,6.378.434,5.68a2.967,2.967,0,0,1,.988-4.105A2.847,2.847,0,0,1,5.4,2.743c.353.615.7,1.233,1.027,1.8.494-.194.955-.366,1.407-.561a.419.419,0,0,0,.217-.253,2.539,2.539,0,0,1,2.249-2.166.494.494,0,0,0,.31-.211,2.466,2.466,0,0,1,4.4,0,.426.426,0,0,0,.3.205,2.532,2.532,0,0,1,2.53,1.708,2.591,2.591,0,0,1-.917,2.923c.1.537.192,1.038.286,1.54.007.037.013.091.037.106.494.3.331.772.288,1.195-.318,3.1-.649,6.2-.971,9.308A1.735,1.735,0,0,1,14.817,20Q9.362,20,3.906,20a1.71,1.71,0,0,1-1.725-1.558c-.344-3.244-.671-6.49-1.018-9.734-.045-.426.03-.747.465-.915M2.42,9.321a3.655,3.655,0,0,0,0,.369q.443,4.227.891,8.453c.054.517.229.681.739.681q5.322,0,10.644,0c.509,0,.683-.166.738-.682q.372-3.509.743-7.019c.062-.591.116-1.182.177-1.813a20.254,20.254,0,0,1-13.932.01m9.489-.195.082.154c1.155-.3,2.314-.592,3.464-.913.581-.162.719-.4.575-1a1.722,1.722,0,0,0-.421-.76c-.536-.554-.46-.966.267-1.2a1.358,1.358,0,0,0,.893-1.731,1.329,1.329,0,0,0-1.694-.859c-.6.19-.819.063-.957-.552a1.324,1.324,0,0,0-2.577-.12c-.195.611-.257.653-.9.6A1.256,1.256,0,0,0,9.247,3.962a3.789,3.789,0,0,1,2.789,2.366c.1-.3.191-.513.248-.737.117-.465.228-.932.319-1.4.087-.455.31-.7.653-.663.365.036.554.33.49.816a10.572,10.572,0,0,1-1.475,4.065c-.138.229-.242.48-.362.72m-5.933-3a3.06,3.06,0,0,1-.2-.382c-.149-.448-.443-.552-.885-.486a15.557,15.557,0,0,1-1.564.112.578.578,0,0,1-.651-.561.567.567,0,0,1,.568-.6c.266-.029.534-.04.8-.059l.791-.057c-.175-.31-.305-.547-.442-.78A1.708,1.708,0,0,0,2,2.589a1.781,1.781,0,0,0-.586,2.476,16,16,0,0,1,1.052,1.9A2.887,2.887,0,0,0,5.025,8.881c.9.122,1.795.31,2.692.468A15.288,15.288,0,0,0,6.7,7.406a.4.4,0,0,0-.317-.124c-.6.024-1.2.067-1.8.107-.451.03-.724-.152-.761-.515s.188-.608.64-.648c.479-.042.96-.066,1.506-.1m1.086-.458c.568,1,1.171,1.968,1.672,2.986.3.6.665.863,1.3.714a1.023,1.023,0,0,0,.531-.2,2.547,2.547,0,0,0-.2-3.335,2.41,2.41,0,0,0-3.3-.161" fill="#333"/>
    </g>
  </g>
</svg>
