<svg xmlns="http://www.w3.org/2000/svg" width="20" height="17" viewBox="0 0 20 17">
  <g id="Vector_Smart_Object" data-name="Vector Smart Object" transform="translate(-177.825 -178.426)">
    <path id="Path_158" data-name="Path 158" d="M187.829,180.824c.347-.375.6-.688.893-.96a5.465,5.465,0,0,1,7.506.109,5.173,5.173,0,0,1,.127,7.349c-2.611,2.621-5.276,5.19-7.924,7.776a.735.735,0,0,1-1.226-.005c-2.634-2.575-5.285-5.135-7.889-7.737a5.193,5.193,0,0,1,.072-7.353,5.473,5.473,0,0,1,7.508-.169C187.2,180.114,187.469,180.439,187.829,180.824Zm-.06,12.867c2.591-2.517,5.153-4.924,7.616-7.425a3.737,3.737,0,0,0-.184-5.323,4.018,4.018,0,0,0-5.449-.1c-.453.4-.869.842-1.308,1.259a.761.761,0,0,1-1.232.005c-.477-.45-.928-.929-1.425-1.356a4.014,4.014,0,0,0-4.986-.11,3.812,3.812,0,0,0-.354,5.842c1.445,1.454,2.927,2.873,4.39,4.31C185.818,191.758,186.793,192.727,187.769,193.691Z" fill="#333"/>
  </g>
</svg>
