<svg xmlns="http://www.w3.org/2000/svg" width="11" height="11" viewBox="0 0 11 11">
  <g id="Vector_Smart_Object" data-name="Vector Smart Object" transform="translate(-250.012 -261.451)">
    <g id="Group_23" data-name="Group 23">
      <path id="Path_30" data-name="Path 30" d="M251.346,261.451a1.283,1.283,0,1,0-.031,2.564h.016a1.283,1.283,0,1,0,.016-2.564Z" fill="#0c6adf"/>
      <path id="Path_31" data-name="Path 31" d="M250.151,265.029h2.358v7.422h-2.358Z" fill="#0c6adf"/>
      <path id="Path_32" data-name="Path 32" d="M258.3,264.855a2.943,2.943,0,0,0-2.126,1.25v-1.076h-2.358v7.422h2.358v-4.145a1.761,1.761,0,0,1,.078-.6,1.3,1.3,0,0,1,1.21-.9c.853,0,1.194.681,1.194,1.678v3.97h2.358V268.2C261.012,265.915,259.848,264.855,258.3,264.855Z" fill="#0c6adf"/>
    </g>
  </g>
</svg>
