<svg xmlns="http://www.w3.org/2000/svg" xmlns:xlink="http://www.w3.org/1999/xlink" width="13" height="12" viewBox="0 0 13 12">
  <defs>
    <clipPath id="clip-path">
      <rect id="Rectangle_21" data-name="Rectangle 21" width="11" height="12" transform="translate(0 0)" fill="none"/>
    </clipPath>
  </defs>
  <g id="Notification_icon" data-name="Notification icon" transform="translate(-1225 -11)">
    <g id="Vector_Smart_Object" data-name="Vector Smart Object" transform="translate(1225 11)">
      <g id="Group_63" data-name="Group 63">
        <g id="Group_62" data-name="Group 62" clip-path="url(#clip-path)">
          <path id="Path_148" data-name="Path 148" d="M3.718,10.452c-.778,0-1.563,0-2.347,0a1.351,1.351,0,0,1-.078-2.7c.224-.022.275-.107.275-.306,0-.836-.038-1.675.025-2.506a3.747,3.747,0,0,1,2.39-3.285c.057-.026.116-.048.17-.071C4.217.533,4.7-.017,5.532,0c.8.016,1.276.589,1.3,1.544a10.658,10.658,0,0,1,1.018.623A3.9,3.9,0,0,1,9.428,5.356c.008.687.008,1.375,0,2.062,0,.219.05.31.3.336a1.352,1.352,0,1,1-.168,2.7c-.76,0-1.521,0-2.275,0-.347,1.065-.924,1.555-1.8,1.548-.855-.008-1.428-.508-1.756-1.548M5.49,9.676H9.412a2.611,2.611,0,0,0,.261-.007.565.565,0,0,0,.534-.532.586.586,0,0,0-.488-.6c-.062-.012-.126-.01-.189-.017a.937.937,0,0,1-.892-.973c0-.718,0-1.436,0-2.155a4.1,4.1,0,0,0-.043-.582A3.164,3.164,0,0,0,5.348,2.134a3.1,3.1,0,0,0-2.992,3.1c0,.75,0,1.5,0,2.249a1.377,1.377,0,0,1-.019.279.962.962,0,0,1-.978.761.61.61,0,0,0-.568.481.561.561,0,0,0,.357.621,1.271,1.271,0,0,0,.4.047q1.973,0,3.946,0m-.93.787a.931.931,0,0,0,.966.758.9.9,0,0,0,.9-.758Zm.4-9.09H6.031a.538.538,0,1,0-1.071,0" fill="#333"/>
        </g>
      </g>
    </g>
    <circle id="Ellipse_1" data-name="Ellipse 1" cx="3" cy="3" r="3" transform="translate(1232 11)" fill="#16d50d"/>
  </g>
</svg>
