<svg xmlns="http://www.w3.org/2000/svg" xmlns:xlink="http://www.w3.org/1999/xlink" width="20" height="20" viewBox="0 0 20 20">
  <defs>
    <clipPath id="clip-path">
      <rect id="Rectangle_6" data-name="Rectangle 6" width="20" height="20" transform="translate(0 0)" fill="none"/>
    </clipPath>
  </defs>
  <g id="Vector_Smart_Object" data-name="Vector Smart Object" transform="translate(0 0)">
    <g id="Group_33" data-name="Group 33">
      <g id="Group_32" data-name="Group 32" clip-path="url(#clip-path)">
        <path id="Path_39" data-name="Path 39" d="M10.009,0A10,10,0,1,1,0,9.972,10.017,10.017,0,0,1,10.009,0M7.786,6.741,9.994,8.956l5.569-5.593A8.637,8.637,0,0,0,9.7,1.338a8.536,8.536,0,0,1-1.911,5.4M8.9,10.014,6.73,7.831a8.363,8.363,0,0,1-5.4,2.037,8.663,8.663,0,0,0,2.039,5.7L8.9,10.014m9.759-.276A8.65,8.65,0,0,0,16.6,4.394L11.043,9.979l1.635,1.65c2.55-1.616,2.67-1.655,5.984-1.891M9.979,10.992,4.394,16.6a8.587,8.587,0,0,0,5.213,2.05,8.4,8.4,0,0,1,2.031-5.988l-1.66-1.671m2.6,2.63a7,7,0,0,0-1.638,4.989A8.6,8.6,0,0,0,15.57,16.63l-2.988-3.008M16.6,15.6a8.628,8.628,0,0,0,1.988-4.494,7.061,7.061,0,0,0-4.963,1.5L16.6,15.6M3.369,4.425a8.567,8.567,0,0,0-1.9,4.1A6.973,6.973,0,0,0,5.8,6.863L3.369,4.425m4.983-2.9a7.763,7.763,0,0,0-3.929,1.9l2.384,2.4A7.051,7.051,0,0,0,8.352,1.525" fill="#333"/>
      </g>
    </g>
  </g>
</svg>
