<svg xmlns="http://www.w3.org/2000/svg" width="14" height="14" viewBox="0 0 14 14">
  <path id="Color_Overlay" data-name="Color Overlay" d="M141.166,4351A14.44,14.44,0,0,1,129,4338.834a.486.486,0,0,1,.265-.482l2.767-1.3a.487.487,0,0,1,.627.178l1.723,2.675a.482.482,0,0,1-.068.6l-1.082,1.083a.485.485,0,0,0-.14.4,6.226,6.226,0,0,0,4.919,4.918.471.471,0,0,0,.4-.136l1.083-1.083a.482.482,0,0,1,.6-.067l2.677,1.723a.483.483,0,0,1,.175.625l-1.3,2.767a.485.485,0,0,1-.433.268Z" transform="translate(-129 -4337)" fill="#333"/>
</svg>
