<svg xmlns="http://www.w3.org/2000/svg" xmlns:xlink="http://www.w3.org/1999/xlink" width="19" height="22" viewBox="0 0 19 22">
  <defs>
    <clipPath id="clip-path">
      <rect id="Rectangle_8" data-name="Rectangle 8" width="19" height="22" transform="translate(0 0)" fill="none"/>
    </clipPath>
  </defs>
  <g id="Vector_Smart_Object" data-name="Vector Smart Object" transform="translate(0 0)">
    <g id="Group_37" data-name="Group 37">
      <g id="Group_36" data-name="Group 36" clip-path="url(#clip-path)">
        <path id="Path_43" data-name="Path 43" d="M12.337,19.966a7.14,7.14,0,0,1-5.645,0c-.056.1-.107.179-.152.265a3.1,3.1,0,0,1-3.764,1.6A3.239,3.239,0,0,1,.636,18.271.875.875,0,0,0,.61,17.82,6.621,6.621,0,0,1,2.616,9.83c.227-.189.462-.364.653-.515a15.87,15.87,0,0,1-.523-2.127A15.871,15.871,0,0,1,2.8,4.982,2.584,2.584,0,0,1,1.239,2.758,2.5,2.5,0,0,1,1.9.831C3.011-.413,4.573-.25,5.944,1.248A7.562,7.562,0,0,1,13.02,1.21,2.644,2.644,0,0,1,14.574.077a2.493,2.493,0,0,1,2.91,1.517,2.571,2.571,0,0,1-1.023,3.172A.48.48,0,0,0,16.2,5.4a5.7,5.7,0,0,1-.533,3.854c.166.128.323.243.473.364a6.725,6.725,0,0,1,2.825,6.107,13.14,13.14,0,0,1-.5,1.98,1.456,1.456,0,0,0-.074.488,3.24,3.24,0,0,1-2.172,3.656,3.109,3.109,0,0,1-3.794-1.773.921.921,0,0,0-.087-.109m-7.4-8.774a4.789,4.789,0,0,0-.753,4.2.554.554,0,0,0,.328.255,3.213,3.213,0,0,1,2.345,2.688.615.615,0,0,0,.287.4,5.622,5.622,0,0,0,4.786-.017.516.516,0,0,0,.248-.336,3.222,3.222,0,0,1,2.341-2.74.6.6,0,0,0,.342-.341,4.463,4.463,0,0,0,.061-2.289,4.519,4.519,0,0,0-.825-1.831,7.372,7.372,0,0,1-9.159.008m1.571-.52A3.351,3.351,0,0,1,7.6,6.75a2.9,2.9,0,0,1,3.389-.271c1.619.916,2.02,2.388,1.544,4.181a4.555,4.555,0,0,0,1.622-6.793,5.969,5.969,0,0,0-9.3,0,4.561,4.561,0,0,0,1.644,6.806m10.663,8.1A1.876,1.876,0,1,0,15.284,20.7a1.905,1.905,0,0,0,1.886-1.929M3.728,20.7a1.93,1.93,0,0,0,.011-3.859A1.93,1.93,0,0,0,3.728,20.7M8.618,7.627a1.992,1.992,0,1,0,2.82,2.147A1.914,1.914,0,0,0,10.4,7.649a.93.93,0,0,1-.885.709c-.474,0-.723-.3-.893-.731M2.912,15.588a6.414,6.414,0,0,1,.846-5C1.752,11.978.747,14.675,1.478,16.45l1.433-.862m14.638.853A5.283,5.283,0,0,0,15.3,10.656a6.361,6.361,0,0,1,.819,4.93l1.435.855M3.333,3.775l1.478-1.8a1.171,1.171,0,0,0-1.28-.666A1.3,1.3,0,0,0,2.493,2.45a1.289,1.289,0,0,0,.84,1.325m12.339-.037A1.24,1.24,0,0,0,16.4,2.4a1.271,1.271,0,0,0-.982-1.089,1.2,1.2,0,0,0-1.29.588l1.542,1.836" fill="#333"/>
        <path id="Path_44" data-name="Path 44" d="M12.026,5.574a.625.625,0,0,1-.6.637.635.635,0,0,1-.652-.629.651.651,0,0,1,.6-.644.636.636,0,0,1,.648.636" fill="#333"/>
        <path id="Path_45" data-name="Path 45" d="M7.388,6.212A.642.642,0,0,1,6.755,5.6a.658.658,0,0,1,.625-.667.637.637,0,0,1,.625.659.622.622,0,0,1-.618.616" fill="#333"/>
      </g>
    </g>
  </g>
</svg>
