<svg xmlns="http://www.w3.org/2000/svg" width="13" height="11" viewBox="0 0 13 11">
  <g id="Vector_Smart_Object" data-name="Vector Smart Object" transform="translate(-191.125 -200.311)">
    <g id="Group_22" data-name="Group 22">
      <g id="Group_21" data-name="Group 21">
        <path id="Path_29" data-name="Path 29" d="M204.125,201.613a5.421,5.421,0,0,1-1.535.438,2.749,2.749,0,0,0,1.173-1.534,5.226,5.226,0,0,1-1.691.671,2.622,2.622,0,0,0-1.946-.878,2.721,2.721,0,0,0-2.664,2.776,3.008,3.008,0,0,0,.062.633,7.449,7.449,0,0,1-5.493-2.9,2.89,2.89,0,0,0-.364,1.4,2.811,2.811,0,0,0,1.183,2.307,2.543,2.543,0,0,1-1.2-.342v.031a2.762,2.762,0,0,0,2.135,2.727,2.559,2.559,0,0,1-.7.092,2.275,2.275,0,0,1-.5-.047,2.707,2.707,0,0,0,2.49,1.934,5.221,5.221,0,0,1-3.3,1.183,4.762,4.762,0,0,1-.638-.038,7.289,7.289,0,0,0,4.088,1.245,7.7,7.7,0,0,0,7.585-7.9c0-.122,0-.241-.009-.359A5.446,5.446,0,0,0,204.125,201.613Z" fill="#0c6adf"/>
      </g>
    </g>
  </g>
</svg>
