<svg xmlns="http://www.w3.org/2000/svg" xmlns:xlink="http://www.w3.org/1999/xlink" width="15" height="18" viewBox="0 0 15 18">
  <defs>
    <clipPath id="clip-path">
      <rect id="Rectangle_24" data-name="Rectangle 24" width="15" height="18" transform="translate(0 0)" fill="none"/>
    </clipPath>
  </defs>
  <g id="Vector_Smart_Object" data-name="Vector Smart Object" transform="translate(0 0)">
    <g id="Group_68" data-name="Group 68">
      <g id="Group_67" data-name="Group 67" clip-path="url(#clip-path)">
        <path id="Path_164" data-name="Path 164" d="M7.514,18c-1.416,0-2.833.011-4.249-.007a4.294,4.294,0,0,1-1.21-.16,2.7,2.7,0,0,1-2.03-2.544,8.72,8.72,0,0,1,.861-4.706,3.183,3.183,0,0,1,2.845-1.86,1.919,1.919,0,0,1,.852.236c.523.255,1,.6,1.536.83a3.8,3.8,0,0,0,3.5-.33,3.687,3.687,0,0,0,.558-.363,1.893,1.893,0,0,1,1.858-.267A3.261,3.261,0,0,1,14.1,10.551a8.643,8.643,0,0,1,.841,4.983,2.836,2.836,0,0,1-2.931,2.453c-1.5.024-3,.006-4.494.006v0M7.49,16.94v0c1.485,0,2.972.014,4.457,0a1.85,1.85,0,0,0,1.987-2.009,17.267,17.267,0,0,0-.262-2.506,3.836,3.836,0,0,0-.984-2.024,1.574,1.574,0,0,0-2.149-.276c-.167.108-.332.22-.506.315a5.041,5.041,0,0,1-3.486.594A5.993,5.993,0,0,1,4.18,9.933.893.893,0,0,0,3.418,9.8,2.286,2.286,0,0,0,1.809,11.09a7.836,7.836,0,0,0-.726,4.166,1.708,1.708,0,0,0,1.533,1.626,3.743,3.743,0,0,0,.662.056c1.4,0,2.808,0,4.211,0" fill="#333"/>
        <path id="Path_165" data-name="Path 165" d="M3.06,4.295A4.331,4.331,0,1,1,7.3,8.659,4.3,4.3,0,0,1,3.06,4.295m1.055.048a3.276,3.276,0,0,0,6.551-.02,3.276,3.276,0,1,0-6.551.02" fill="#333"/>
      </g>
    </g>
  </g>
</svg>
